<svg width="100px" height="100px" viewBox="0 0 24 24" fill="none" xmlns="http://www.w3.org/2000/svg">
<path d="M2 7.5C2 6.39543 2.89543 5.5 4 5.5H8.58579C8.851 5.5 9.10536 5.60536 9.29289 5.79289L10.7071 7.20711C10.8946 7.39464 11.149 7.5 11.4142 7.5H20C21.1046 7.5 22 8.39543 22 9.5V18.5C22 19.6046 21.1046 20.5 20 20.5H4C2.89543 20.5 2 19.6046 2 18.5V7.5ZM4 6.5C3.72386 6.5 3.5 6.72386 3.5 7V18C3.5 18.2761 3.72386 18.5 4 18.5H20C20.2761 18.5 20.5 18.2761 20.5 18V9C20.5 8.72386 20.2761 8.5 20 8.5H11.4142C10.8526 8.5 10.3155 8.2625 9.93934 7.85355L8.52513 6.43934C8.14895 6.03039 7.61188 5.79289 7.05025 5.79289H4Z" fill="#0000FF"/>
  <path fill-rule="evenodd" clip-rule="evenodd" d="M2 7.5C2 6.39543 2.89543 5.5 4 5.5H8.58579C8.851 5.5 9.10536 5.60536 9.29289 5.79289L10.7071 7.20711C10.8946 7.39464 11.149 7.5 11.4142 7.5H20C21.1046 7.5 22 8.39543 22 9.5V18.5C22 19.6046 21.1046 20.5 20 20.5H4C2.89543 20.5 2 19.6046 2 18.5V7.5ZM4 6.5C3.72386 6.5 3.5 6.72386 3.5 7V18C3.5 18.2761 3.72386 18.5 4 18.5H20C20.2761 18.5 20.5 18.2761 20.5 18V9C20.5 8.72386 20.2761 8.5 20 8.5H11.4142C10.8526 8.5 10.3155 8.2625 9.93934 7.85355L8.52513 6.43934C8.14895 6.03039 7.61188 5.79289 7.05025 5.79289H4Z" fill="#0000FF"/>
</svg>