<svg xmlns="http://www.w3.org/2000/svg" version="1.1" viewBox="-5.0 -10.0 110.0 135.0">
 <path d="m57.457 47.086h0.007813l0.046875-0.007813h0.007812l0.12109-0.007813h17.629c0.023438-1.2109 0.035157-2.6328 0.035157-4.2695 0-1.8711-0.015626-3.7891-0.042969-5.75h-68.258v34.781c7.2773-0.039062 14.512-0.0625 21.66-0.0625 7.0781 0 15.25 0.023438 24.473 0.0625v-20.262c0-0.050781 0.003906-0.10156 0.011719-0.15234l0.003906-0.019531v-0.007813l0.003906-0.023437c0.15234-1.1094 0.66797-2.1055 1.418-2.8555 0.76172-0.76172 1.7656-1.2773 2.8789-1.4297zm-50.172 26.734c0.38672 0.81641 1.125 1.7227 2.0273 2.5078 1.1914 1.0352 2.6406 1.8008 3.9062 1.7891h0.046875c6.4727-0.042969 12.879-0.066407 19.238-0.066407 5.9844 0 12.859 0.019531 20.637 0.0625v-4.2891c-7.9648-0.035157-16.113-0.054688-24.473-0.054688-8.0117 0-15.129 0.019531-21.375 0.050781zm5.9414 6.2852c-1.7812 0.015625-3.6992-0.96094-5.2188-2.2734-1.6523-1.4297-2.8789-3.332-2.9961-4.8555-0.007813-0.046874-0.011719-0.097656-0.011719-0.14844v-52.488c0-0.10547 0.015625-0.20703 0.046875-0.30078 0.17578-0.75 0.52734-1.3281 1.0469-1.7344 0.51172-0.39453 1.1602-0.59375 1.9297-0.59375l0.089843-0.003907h4.0742v-3.5898l0.003906-0.089844c-0.003906-0.92578 0.22266-1.625 0.72656-2.1406l0.0625-0.0625c0.53906-0.51562 1.2969-0.75 2.332-0.75781h23.488c0.28125 0 0.53906 0.11719 0.71875 0.30469 1.7695 1.5391 3.5898 3.1953 5.4609 4.9648 1.8008 1.707 3.668 3.5352 5.5898 5.4805h26.645l0.125 0.007813c2.0117 0.089843 3.6953 0.98438 4.9062 2.3438l0.058594 0.058593c1.2734 1.4648 1.9883 3.4531 1.9453 5.5273v0.03125c0.042969 3.8984 0.0625 7.2148 0.0625 9.9883 0 2.5078-0.015625 4.9336-0.046875 7.2891h6.2344l0.12109 0.007812h0.007812l0.046875 0.007813h0.007813c1.1133 0.14844 2.1172 0.66797 2.8789 1.4219 0.75781 0.75781 1.2695 1.7539 1.4258 2.8633l0.003907 0.023438v0.007812l0.003906 0.019531c0.007812 0.050782 0.011718 0.10156 0.011718 0.15234v32.855c0 0.050781-0.003906 0.10156-0.011718 0.15234l-0.003906 0.019531v0.007812l-0.003907 0.023438c-0.15234 1.1133-0.66797 2.1094-1.4219 2.8633-0.75 0.75-1.7461 1.2656-2.8633 1.4219l-0.023437 0.003906h-0.007813l-0.019531 0.003907c-0.046875 0.007812-0.10156 0.011719-0.15234 0.011719h-32.855c-0.058593 0-0.11328-0.007813-0.16797-0.015626h-0.007812l-0.023438-0.003906c-1.0781-0.14844-2.0508-0.64062-2.793-1.3594l-0.066406-0.0625c-0.75781-0.75781-1.2734-1.7617-1.4258-2.8789v-0.007813l-0.007812-0.046874v-0.007813l-0.007813-0.12109v-4.3242c-6.7109-0.035156-13.602-0.050781-20.637-0.050781-7.2539 0-13.668 0.019531-19.215 0.054688zm-5.2188-60.398c-0.30859 0.003907-0.53906 0.0625-0.69141 0.17969-0.14062 0.10938-0.24609 0.29688-0.3125 0.55859v14.602h68.098c-0.22266-1.0117-0.67578-1.9453-1.3047-2.7344-0.82031-1.0195-1.9414-1.8047-3.25-2.207h-27.402c-0.30469 0-0.57422-0.13672-0.75781-0.34766-1.6992-1.7344-3.4492-3.4414-5.2422-5.1172-1.7305-1.6172-3.5625-3.2617-5.4805-4.9219h-23.551l-0.10938-0.007812zm7.3047-6.6367c-0.5 0.003907-0.81641 0.070313-0.95703 0.20313l-0.023438 0.023437c-0.10156 0.12109-0.14844 0.35938-0.14844 0.71875l0.007812 0.10938v3.5898h17.844c0.28125 0 0.53516 0.11328 0.71484 0.30078 1.9688 1.6992 3.8906 3.4258 5.7539 5.168 1.7812 1.6641 3.4688 3.3086 5.0586 4.918h27.125c0.11328 0 0.21875 0.019532 0.32031 0.054688l0.023438 0.007812c1.7422 0.51563 3.2344 1.5469 4.3164 2.9023 1.0781 1.3555 1.7578 3.0273 1.8828 4.832v0.011718c0.007812 0.046875 0.011719 0.09375 0.011719 0.14062l-0.003907 0.082031c0.042969 2.6406 0.0625 4.8633 0.0625 6.668 0 1.5117-0.015625 2.9336-0.042969 4.2695h5.0039c0.027343-2.0781 0.039062-4.5117 0.039062-7.2891 0-3.3086-0.015625-6.6406-0.054687-9.957v-0.10156c0.03125-1.5703-0.50391-3.0781-1.4609-4.1797l-0.046875-0.058594c-0.85938-0.96094-2.0586-1.6016-3.4805-1.668h-27.117c-0.30469 0-0.57422-0.13672-0.75781-0.34766-1.9883-2.0156-3.9219-3.9141-5.793-5.6875-1.7891-1.6953-3.5156-3.2695-5.1719-4.7148h-23.113zm63.223 54.965c-1.5742 0-3.0078-0.64062-4.0391-1.6719l-0.0625-0.066406c-0.99609-1.0273-1.6094-2.4297-1.6094-3.9727 0-1.5742 0.64062-3.0078 1.6719-4.0391s2.4609-1.6719 4.0391-1.6719 3.0078 0.64062 4.0391 1.6719 1.6719 2.4609 1.6719 4.0391c0 1.5742-0.64062 3-1.6719 4.0352s-2.4648 1.6758-4.0391 1.6758zm-2.625-3.0859c0.67188 0.67188 1.5977 1.0859 2.625 1.0859 1.0234 0 1.9531-0.41406 2.625-1.0859 0.67188-0.66797 1.0859-1.5977 1.0859-2.625 0-1.0234-0.41406-1.9531-1.0859-2.625s-1.5977-1.0859-2.625-1.0859c-1.0234 0-1.9531 0.41406-2.625 1.0859s-1.0859 1.5977-1.0859 2.625c0 1 0.39453 1.9102 1.0352 2.5742l0.050781 0.046874zm8.3242 6.8672c1.5273 1.0703 3.1484 2.2227 4.8594 3.4531 1.2852 0.92578 2.5859 1.8711 3.9023 2.8359v-26.48c-0.09375-0.66016-0.40234-1.2539-0.85156-1.7031s-1.0469-0.75781-1.7109-0.85156h-32.742c-0.66406 0.09375-1.2578 0.40234-1.707 0.85156s-0.75781 1.043-0.85156 1.7031v24.898c2.7266-2.9727 5.2539-5.6016 7.5664-8.0039 1.5703-1.6328 3.043-3.1641 4.4336-4.6602l0.003907-0.003906 0.015625-0.019531c0.046875-0.054688 0.10156-0.10547 0.16406-0.14844l0.007813-0.007812 0.097656-0.0625 0.046875-0.023438h0.003906l0.10938-0.042969c0.14062-0.046875 0.28516-0.058593 0.42578-0.042969h0.007813l0.015625 0.003907h0.007812l0.015626 0.003906 0.11719 0.027344h0.007813l0.015624 0.007812h0.007813l0.015625 0.007813h0.007812l0.015626 0.007812h0.007812l0.019531 0.007813h0.003907l0.019531 0.007812h0.003906l0.019531 0.007813h0.003906l0.039063 0.019531h0.003906l0.019531 0.011719h0.003907l0.019531 0.011718c0.12109 0.066407 0.22656 0.16016 0.30859 0.27734l0.007812 0.007813 0.0625 0.097656c1.1797 2.1406 2.5078 4.4297 3.9727 6.8672 1.293 2.1445 2.6992 4.4219 4.2188 6.8203 0.80859-0.89453 1.6406-1.7695 2.4844-2.6133 1.1445-1.1406 2.3086-2.2266 3.5-3.25l0.023437-0.023438 0.019531-0.011718 0.058594-0.046876 0.0625-0.039062h0.003906l0.019532-0.007812 0.003906-0.003907 0.019531-0.007812 0.003906-0.003907 0.019531-0.007812 0.003907-0.003906 0.019531-0.007813 0.003906-0.003906 0.019532-0.007813 0.003906-0.003906 0.0625-0.023437 0.007812-0.003907 0.015625-0.003906 0.007813-0.003906 0.019531-0.003906 0.007813-0.003906 0.015624-0.003907 0.007813-0.003906 0.015625-0.003906 0.007812-0.003907 0.015626-0.003906 0.007812-0.003906 0.015625-0.003906h0.007813l0.015624-0.003906 0.023438-0.003907h0.19531l0.015626 0.003907h0.007812l0.015625 0.003906h0.007813l0.019531 0.003906h0.007812l0.019531 0.003906h0.007813l0.019531 0.003906h0.007813l0.019531 0.003907h0.007812l0.019532 0.003906h0.007812l0.019532 0.003906h0.007812l0.066406 0.019531h0.003906l0.019532 0.007813h0.003906l0.019531 0.007813h0.003907l0.019531 0.007812h0.003906l0.066406 0.03125 0.058594 0.035156 0.003906 0.003906 0.039063 0.023438 0.003906 0.003906 0.015625 0.011719 0.039063 0.03125zm8.7617 8.7656c-1.832-1.3477-3.5195-2.5781-5.0664-3.6953-1.4922-1.0742-2.9102-2.0859-4.2539-3.0312-0.94531 0.83594-1.8789 1.7188-2.8047 2.6406-1.0938 1.0938-2.1875 2.2695-3.2734 3.5156-0.36328 0.41406-0.99609 0.46094-1.4102 0.097656-0.097656-0.082031-0.17188-0.18359-0.23047-0.28906-1.8047-2.8281-3.4453-5.4648-4.9141-7.9141-1.2305-2.0469-2.3477-3.957-3.3438-5.7266-1.1133 1.1836-2.3086 2.4219-3.5625 3.7266-2.6914 2.7969-5.6836 5.9102-9 9.5898v4.875c0.09375 0.66016 0.40234 1.2539 0.85547 1.707l0.046874 0.054687c0.44141 0.42188 1.0156 0.71094 1.6523 0.80078h32.746c0.65625-0.09375 1.25-0.40625 1.6992-0.85547s0.76172-1.043 0.85547-1.6992v-3.793zm-25.668-16.895c0.046875-0.03125 0.09375-0.0625 0.14453-0.085938z"/>
<text x="0.0" y="117.5" font-size="5.0" font-weight="bold" font-family="Arbeit Regular, Helvetica, Arial-Unicode, Arial, Sans-serif" fill="#000000">Created by Mukholifah</text><text x="0.0" y="122.5" font-size="5.0" font-weight="bold" font-family="Arbeit Regular, Helvetica, Arial-Unicode, Arial, Sans-serif" fill="#000000">from Noun Project</text></svg>